<?xml version="1.0" encoding="utf-8"?>
<!-- Generator: Adobe Illustrator 16.0.4, SVG Export Plug-In . SVG Version: 6.00 Build 0)  -->
<!DOCTYPE svg PUBLIC "-//W3C//DTD SVG 1.1//EN" "http://www.w3.org/Graphics/SVG/1.1/DTD/svg11.dtd">
<svg version="1.1" id="gr_x5F_icon18_x5F_vanilla" xmlns="http://www.w3.org/2000/svg" xmlns:xlink="http://www.w3.org/1999/xlink"
	 x="0px" y="0px" width="250px" height="250px" viewBox="0 0 250 250" enable-background="new 0 0 250 250" xml:space="preserve">
<g id="gr_x5F_big_42_">
	<path id="gr_232_" fill="#F3BA48" d="M237.666,172.705c0,9.535-6.759,21.247-15.021,26.018l-82.623,47.698
		c-8.263,4.771-21.78,4.771-30.043,0l-82.623-47.698c-8.263-4.771-15.021-16.482-15.021-26.018V77.298
		c0-9.541,6.759-21.249,15.021-26.018l82.623-47.701c8.263-4.771,21.78-4.771,30.043,0l82.623,47.701
		c8.263,4.77,15.021,16.478,15.021,26.018V172.705z"/>
	<g>
		<path fill="#FFFFFF" d="M99.627,90.812c-8.028,28.282,5.884,49.299,26.629,68.626c-2.222-7.146-3.52-14.589-4.37-20.18
			c-3.436-22.453,2.357-42.367,17.044-59.542c7.129-8.333,17.034-10.688,25.275-5.655c3.22,1.965,8.046,5.98,7.14,10.012
			c-0.69,3.062-5.231,3.861-8.154,4.635c-19.747,5.244-29.974,19.164-30.688,39.482c-0.67,18.992,8.283,37.22,12.765,48.925
			c1.385,3.62-11.411-0.391-15.59-2.428c-22.282-10.847-38.298-29.211-48.538-52.16C74.244,107.078,81.282,94.16,99.627,90.812z"/>
	</g>
</g>
</svg>
